Coordinates
version=1
nRows=14
nColumns=36
inDegrees=yes

Units are S.I. units (second, meters, Newtons, ...)
If the header above contains a line with 'inDegrees', this indicates whether rotational values are in degrees (yes) or radians (no).

endheader
time	pelvis_tilt	pelvis_list	pelvis_rotation	pelvis_tx	pelvis_ty	pelvis_tz	hip_flexion_r	hip_adduction_r	hip_rotation_r	knee_angle_r	knee_angle_r_beta	ankle_angle_r	subtalar_angle_r	mtp_angle_r	hip_flexion_l	hip_adduction_l	hip_rotation_l	knee_angle_l	knee_angle_l_beta	ankle_angle_l	subtalar_angle_l	mtp_angle_l	lumbar_extension	lumbar_bending	lumbar_rotation	arm_flex_r	arm_add_r	arm_rot_r	elbow_flex_r	pro_sup_r	arm_flex_l	arm_add_l	arm_rot_l	elbow_flex_l	pro_sup_l
      0.00000000	      0.76413816	     -0.12070860	     -9.70436950	     -0.01657188	      1.31623585	     -0.10481081	     -8.08376293	      1.07185005	      1.72597710	      1.49473679	      0.02608808	      4.69994996	     -1.69927134	     -6.48214592	     -4.19166560	      0.87825992	      4.13612824	      7.11996964	      0.12426691	      5.88788791	     -6.81765880	     -6.48214592	     -0.15464701	     -0.24484112	      0.41692806	     -9.19309386	    -12.08338125	      4.50948324	     21.96759732	     80.97182456	     -0.49468668	    -13.01119273	     20.26056897	     19.92971125	     77.32587573
      0.01666670	      0.22770435	     -0.55161478	     -8.99917504	     -0.03433911	      1.31289338	     -0.10945224	     -7.36863104	      1.79592153	      2.34542829	      0.97553993	      0.01702638	      7.31568414	     -1.41501361	     -6.69951867	     -3.66805497	      0.34860801	      4.15059292	      6.14144617	      0.10718846	      6.94775798	     -5.88168071	     -6.69951867	     -1.27542877	      0.11086776	     -0.13602780	     -9.05057976	    -12.63115119	      4.70225683	     23.66780965	     78.80466785	     -0.58249055	    -13.54043508	     19.88713944	     21.77009855	     75.15983951
      0.03333330	     -0.17503467	     -0.65844017	     -9.00993013	     -0.03538006	      1.31379188	     -0.10958461	     -6.93331241	      2.20070230	      3.33496797	      1.11293290	      0.01942434	      7.79287518	     -2.39516110	     -7.15875175	     -3.46310209	      0.27665361	      4.63047616	      5.33824820	      0.09317001	      7.08251172	     -6.49297489	     -7.15875175	     -1.15201771	      0.38007250	     -1.20555545	     -7.61050746	    -12.97314424	      5.01963839	     22.03737264	     88.77401642	     -0.74232581	    -13.40441726	     17.05632468	     21.10844458	     81.71944639
      0.05000000	     -0.57254162	     -0.61206423	     -8.96667647	     -0.03473497	      1.31246943	     -0.10959471	     -6.41816314	      2.30820445	      3.57610733	      1.43259481	      0.02500350	      8.10957381	     -3.03081489	     -7.30808193	     -3.16742989	      0.34955501	      4.59312431	      5.14585884	      0.08981218	      7.21342545	     -6.37904180	     -7.30808193	     -0.79548926	      0.44658236	     -1.44531554	     -6.94404731	    -13.20751425	      7.45451284	     21.02939974	     83.59332316	     -0.38185732	    -13.37004318	     18.52205386	     19.86437372	     77.53455671
      0.06666670	     -0.37843996	     -0.50543981	     -8.90520127	     -0.03538949	      1.31291885	     -0.10961761	     -6.49755083	      2.27275802	      3.72346827	      1.67601336	      0.02925195	      8.56156193	     -3.54814178	     -7.34369340	     -3.30146472	      0.52125129	      4.52400489	      5.28124030	      0.09217503	      7.44446246	     -6.11980408	     -7.34369340	     -1.23883480	      0.33946669	     -1.88476281	     -6.69935619	    -13.32848153	      8.08706904	     21.82989484	     82.34998978	     -0.64201724	    -13.77610505	     18.94148036	     20.73452795	     76.76412816
      0.08333330	     -0.85775498	     -0.28169692	     -9.04861869	     -0.03473119	      1.31217524	     -0.10922225	     -5.74844775	      2.12466603	      4.59716567	      2.04696127	      0.03572621	      8.69004374	     -4.74095157	     -7.42126386	     -2.62190499	      0.65922520	      4.32344695	      5.73135892	      0.10003108	      7.61858166	     -5.78512148	     -7.42126386	     -0.47542800	      0.18962194	     -2.39964864	     -5.69346779	    -13.22668164	      8.44544573	     20.03964532	     91.79975431	     -0.88031930	    -13.62801551	     16.65098351	     19.59851274	     87.00230138
      0.10000000	     -1.11417320	     -0.08629432	     -9.19357445	     -0.03548722	      1.31218423	     -0.10903410	     -5.28922416	      1.94928833	      5.09330649	      2.30441972	      0.04021971	      8.87477971	     -5.29254542	     -7.44067921	     -2.22838929	      0.78253194	      4.07921967	      5.96823723	      0.10416539	      7.61265222	     -5.50358876	     -7.44067921	     -0.11539911	      0.05087968	     -2.67150513	     -5.08557669	    -13.23371917	     10.62956523	     19.20420413	     89.55477453	     -0.85945802	    -13.77207224	     18.31506781	     18.65349266	     85.65774729
      0.11666670	     -1.29788980	      0.06776255	     -9.29046352	     -0.03461074	      1.31194036	     -0.10869057	     -4.93188978	      1.80417446	      5.42194947	      2.55805363	      0.04464646	      9.06596000	     -5.63385141	     -7.45749474	     -1.92339701	      0.85438674	      3.66534842	      6.20162670	      0.10823880	      7.70652071	     -4.87512162	     -7.45749474	      0.15922367	     -0.09601390	     -2.71559137	     -4.68629547	    -13.17953061	     12.42536346	     18.36588682	     88.15711781	     -0.63999480	    -13.89692363	     19.60719506	     18.14006257	     84.95079820
      0.13333330	     -1.42658952	      0.19091874	     -9.32410765	     -0.03533512	      1.31196691	     -0.10853802	     -4.64746437	      1.70791882	      5.83773597	      2.75518397	      0.04808703	      9.09512231	     -6.14266662	     -7.47765050	     -1.62872104	      0.91297316	      3.56059486	      6.28703617	      0.10972948	      7.80886505	     -4.64942811	     -7.47765050	      0.12193261	     -0.20329728	     -2.86914450	     -4.64321348	    -13.01783863	     10.52878721	     18.67601346	     94.71173708	     -0.72380379	    -13.96365005	     17.76692079	     18.44576783	     92.13565725
      0.15000000	     -1.45611727	      0.20487296	     -9.30773624	     -0.02629908	      1.31521475	     -0.10370850	     -4.68571221	      1.70340189	      5.84361531	      2.77261562	      0.04839127	      9.09447358	     -6.14049799	     -7.47765213	     -1.64826989	      0.88972524	      3.56564079	      6.29983349	      0.10995284	      7.80143066	     -4.64583698	     -7.47765213	      0.11516693	     -0.19587224	     -2.87250618	     -4.64121109	    -13.01672827	     10.52931629	     18.67512246	     94.71210249	     -0.71772246	    -13.96222514	     17.76745814	     18.44530431	     92.13615508
      0.16666670	     -1.41882142	      0.29659993	     -9.30334515	     -0.02729081	      1.31542659	     -0.10364621	     -4.82423726	      1.63744080	      6.24142081	      2.70377682	      0.04718981	      9.21870252	     -6.19170353	     -7.48146127	     -1.82599444	      0.92795574	      3.43735867	      6.15275196	      0.10738578	      7.40113451	     -4.19624495	     -7.48146127	      0.30009249	     -0.39381977	     -3.17279235	     -4.19056738	    -12.64951211	     11.74298621	     17.32963032	     94.71192986	     -0.51562510	    -14.06686610	     19.31759622	     17.15544583	     92.36913238
      0.18333330	     -1.44964004	      0.33862854	     -9.20603906	     -0.03489949	      1.31838370	     -0.10859904	     -4.78732243	      1.59959894	      6.34299492	      2.72869567	      0.04762472	      9.22421465	     -6.15890777	     -7.48149629	     -1.77092254	      0.94645295	      3.42567362	      6.17184865	      0.10771908	      7.28024719	     -4.13126407	     -7.48149629	      0.23526683	     -0.42677983	     -3.30443955	     -4.17675167	    -12.60672402	     11.75754299	     17.32669691	     94.73604203	     -0.32677763	    -14.07275826	     19.33816010	     17.18251531	     92.40329128
      0.20000000	     -1.32337252	      0.37012484	     -9.12286812	     -0.02774567	      1.31517219	     -0.10385722	     -5.01911234	      1.58282807	      6.54488092	      2.77103135	      0.04836362	      9.14269423	     -6.43832385	     -7.48212458	     -1.95783907	      0.95926969	      3.33924100	      6.17494827	      0.10777318	      6.91384488	     -3.89237287	     -7.48212458	      0.20632681	     -0.58918558	     -3.47276742	     -3.90424338	    -12.36280519	     12.48485127	     16.18013391	     95.02631728	      0.05917806	    -14.10774567	     20.67659438	     15.88999757	     93.14811141
      0.21666670	     -1.35209871	      0.36330589	     -9.06282184	     -0.03746617	      1.31489235	     -0.10218549	     -5.00514401	      1.64851682	      6.66669673	      2.79478155	      0.04877814	      9.11627180	     -6.36141274	     -7.48214603	     -1.87804710	      0.89421711	      3.33843263	      6.20994330	      0.10838396	      6.86589447	     -3.87693863	     -7.48214603	      0.11863482	     -0.67324577	     -3.61403299	     -3.96973780	    -12.28224749	     12.50527885	     16.17708223	     95.04987148	      0.22803140	    -14.14954171	     20.68941760	     15.92533653	     93.17699021
